<?xml version="1.0" encoding="UTF-8"?>
<svg width="32px" height="37px" viewBox="0 0 32 37" version="1.1" xmlns="http://www.w3.org/2000/svg" xmlns:xlink="http://www.w3.org/1999/xlink">
    <!-- Generator: Sketch 50.2 (55047) - http://www.bohemiancoding.com/sketch -->
    <title>logo</title>
    <desc>Created with Sketch.</desc>
    <defs></defs>
    <g id="Page-1" stroke="none" stroke-width="1" fill="none" fill-rule="evenodd">
        <g id="CT-Action-Screen-Active-" transform="translate(-35.000000, -24.000000)" fill="#FFFFFF">
            <g id="Template-/-Main-Screen-/-White-/-Subnavi">
                <g id="Header" transform="translate(35.000000, 24.000000)">
                    <path d="M30.9142052,28.7868669 L16.4615417,35.5523233 C16.4611773,35.5523233 16.4608129,35.5523233 16.4604485,35.5523233 L16.4604485,21.5291664 L30.9129298,28.265653 C31.013808,28.3127821 31.0790964,28.4149356 31.0790964,28.5268065 C31.0794608,28.6375842 31.014719,28.7397985 30.9142052,28.7868669 Z M1.0868847,28.7660354 C0.986370946,28.7189062 0.921386221,28.6167527 0.921750622,28.5045174 C0.921750622,28.4767015 0.925819759,28.4494929 0.933532899,28.4236205 C0.956611586,28.3458818 1.01218264,28.2798646 1.0881601,28.2448214 L15.5395482,21.5275266 L15.5395482,35.5322813 L1.0868847,28.7660354 Z M1.0881601,7.74505601 L15.5616551,1.01755795 C15.7007346,0.953180559 15.8496529,0.920809663 15.9985711,0.920809663 C16.1478538,0.920809663 16.2971365,0.953180559 16.435973,1.01792235 L30.9129298,7.76588757 C31.013808,7.81301667 31.0790964,7.91517023 31.0790964,8.02704113 C31.0794608,8.13787956 31.014719,8.24003312 30.9142052,8.28716223 L23.595832,11.7127682 C17.8894444,14.3844299 17.8894444,14.3844299 16.9198359,14.8344036 L16.3743893,15.0879655 C16.3343053,15.102663 16.2934317,15.1120766 16.2524974,15.1217333 C16.233913,15.1261061 16.2158145,15.1330904 16.1969264,15.13637 C16.1360108,15.1469376 16.0731517,15.1520392 16.0062843,15.1502779 C15.8577304,15.1480915 15.7154928,15.1157207 15.5820008,15.0527401 L1.0868847,8.26626995 C1.06180181,8.2545484 1.03945193,8.23972946 1.01959211,8.22284557 C0.959891189,8.17012899 0.923937024,8.09263319 0.921872089,8.00608811 C0.922783089,7.89385281 0.987646347,7.79169926 1.0881601,7.74505601 Z M0.921750622,27.3064299 L0.920900354,9.20624058 L15.1904527,15.8862451 C15.3090042,15.9420591 15.4318072,15.9843296 15.5576467,16.0149999 C15.5619588,16.0160324 15.5658457,16.0183403 15.5701578,16.019312 C15.5475043,16.1531684 15.5395482,16.3002646 15.5395482,16.4621799 L15.5395482,20.5539704 C15.5303774,20.5562175 15.5218748,20.5610154 15.512704,20.563384 C15.3972499,20.5929612 15.2837999,20.6307981 15.1742369,20.6816927 L0.921750622,27.3064299 Z M31.3021701,27.4311155 L16.8253955,20.6830895 C16.7087874,20.6287332 16.5859237,20.5876774 16.4604485,20.5571892 L16.4604485,16.4621799 C16.4604485,16.0624934 16.4746602,16.0560557 16.7324127,15.9369575 L16.7319875,15.935925 L17.3075578,15.6696699 C18.2775915,15.2193318 18.2775915,15.2193318 23.9861655,12.5469413 L31.304478,9.12097091 C31.7280326,8.92279786 32.0010899,8.49256255 31.9999967,8.02600866 C31.9999967,7.55872598 31.7260892,7.12885506 31.3021701,6.93135009 L16.8250311,0.183384872 C16.3009019,-0.060884812 15.6994592,-0.060884812 15.1742369,0.181927271 L0.700377424,6.90978974 C0.278705515,7.10529051 0.00491940439,7.53218549 0.00121466775,7.99867864 L0,7.99867864 L0.000911000812,28.5045174 L0.0009717342,28.5045174 C0.000121466775,28.9715571 0.272753643,29.4011244 0.696247554,29.599844 L15.1904527,36.3861927 C15.3034168,36.4390308 15.4203285,36.4791148 15.5395482,36.5094815 L15.5395482,36.5611049 L15.9911617,36.5696076 C16.0032476,36.5696076 16.0152728,36.5702149 16.0273588,36.5702149 C16.0278446,36.5702149 16.0283305,36.5702149 16.0287556,36.5702149 L16.4604485,36.5738589 L16.4604485,36.5198062 C16.5945479,36.4888322 16.7259749,36.4444968 16.8512679,36.3861927 L31.304478,29.6207363 C31.7280326,29.4225025 32.0010899,28.9922672 31.9999967,28.5257133 C31.9999967,28.0584307 31.7260892,27.6286205 31.3021701,27.4311155 Z" id="logo"></path>
                </g>
            </g>
        </g>
    </g>
</svg>